<?xml version="1.0" encoding="UTF-8"?>
<svg id="d8" viewBox="0 0 720 360" xmlns="http://www.w3.org/2000/svg" width="720" height="360"><style>text { font-family: 'Kalam','Inter',cursive,sans-serif; }</style>
<g transform="rotate(-1.2 135 165)"><path d="M29.4 42.9 L241.4 43.6 L242.8 288.8 L26.9 290.5 Z" stroke="none" fill="#fffdf9" fill-rule="evenodd"/><path d="M28.0 42.0 C98.6 40.6, 169.2 43.2, 242.0 42.3 M28.8 42.7 C113.6 42.2, 182.1 43.0, 241.6 42.6 M242.0 42.0 C243.3 123.8, 240.9 205.7, 242.2 290.0 M241.5 42.6 C242.4 141.2, 241.7 220.6, 242.0 289.6 M242.0 290.0 C169.2 291.3, 98.6 289.0, 28.0 289.8 M241.4 289.5 C156.4 290.3, 87.9 289.4, 28.5 290.0 M28.0 290.0 C26.6 205.7, 29.2 123.8, 27.8 42.0 M28.6 289.6 C27.7 190.8, 28.5 111.4, 28.0 42.5" stroke="#262a33" fill="none" stroke-width="1.7" fill-rule="evenodd"/></g>
<text x="135" y="72" font-family="'Inter',sans-serif" font-size="14" font-weight="700" fill="#262a33" text-anchor="middle"><tspan x="135" dy="0">conversa</tspan></text>
<path d="M55 82 C108 80, 162 84, 215 82" stroke="#c9c4b6" fill="none" stroke-width="1.2"/>
<g transform="rotate(-0.8 135 118)"><path d="M49.4 94.9 L221.4 95.6 L222.8 138.8 L46.9 140.5 Z" stroke="none" fill="#e3f5f2" fill-rule="evenodd"/><path d="M48.0 94.0 C105.4 92.6, 162.8 95.2, 222.0 94.3 M48.8 94.7 C117.6 94.2, 173.3 95.0, 221.6 94.6 M222.0 94.0 C223.3 109.2, 220.9 124.4, 222.2 140.0 M221.5 94.6 C222.4 112.4, 221.7 127.1, 222.0 139.6 M222.0 140.0 C162.8 141.3, 105.4 139.0, 48.0 139.8 M221.4 139.5 C152.4 140.3, 96.7 139.4, 48.5 140.0 M48.0 140.0 C46.6 124.4, 49.2 109.2, 47.8 94.0 M48.6 139.6 C47.7 121.6, 48.5 106.9, 48.0 94.5" stroke="#0a5f56" fill="none" stroke-width="1.2" fill-rule="evenodd"/></g>
<text x="62" y="114" font-family="'Inter',sans-serif" font-size="10" font-weight="600" fill="#0a5f56" text-anchor="start"><tspan x="62" dy="0">voc&#234;</tspan></text>
<text x="135" y="130" font-family="'Kalam','Inter',cursive,sans-serif" font-size="13" font-weight="400" fill="#262a33" text-anchor="middle"><tspan x="135" dy="0">prefiro Go a Python</tspan></text>
<g transform="rotate(1 135 175)"><path d="M49.4 151.9 L221.4 152.6 L222.8 195.8 L46.9 197.5 Z" stroke="none" fill="#ecebfb" fill-rule="evenodd"/><path d="M48.0 151.0 C105.4 149.6, 162.8 152.2, 222.0 151.3 M48.8 151.7 C117.6 151.2, 173.3 152.0, 221.6 151.6 M222.0 151.0 C223.3 166.2, 220.9 181.4, 222.2 197.0 M221.5 151.6 C222.4 169.4, 221.7 184.1, 222.0 196.6 M222.0 197.0 C162.8 198.3, 105.4 196.0, 48.0 196.8 M221.4 196.5 C152.4 197.3, 96.7 196.4, 48.5 197.0 M48.0 197.0 C46.6 181.4, 49.2 166.2, 47.8 151.0 M48.6 196.6 C47.7 178.6, 48.5 163.9, 48.0 151.5" stroke="#3a3a8f" fill="none" stroke-width="1.2" fill-rule="evenodd"/></g>
<text x="62" y="171" font-family="'Inter',sans-serif" font-size="10" font-weight="600" fill="#3a3a8f" text-anchor="start"><tspan x="62" dy="0">modelo</tspan></text>
<text x="135" y="187" font-family="'Kalam','Inter',cursive,sans-serif" font-size="13" font-weight="400" fill="#262a33" text-anchor="middle"><tspan x="135" dy="0">ok, uso Go ent&#227;o</tspan></text>
<g transform="rotate(-0.6 135 232)"><path d="M49.4 208.9 L221.4 209.6 L222.8 252.8 L46.9 254.5 Z" stroke="none" fill="#e3f5f2" fill-rule="evenodd"/><path d="M48.0 208.0 C105.4 206.6, 162.8 209.2, 222.0 208.3 M48.8 208.7 C117.6 208.2, 173.3 209.0, 221.6 208.6 M222.0 208.0 C223.3 223.2, 220.9 238.4, 222.2 254.0 M221.5 208.6 C222.4 226.4, 221.7 241.1, 222.0 253.6 M222.0 254.0 C162.8 255.3, 105.4 253.0, 48.0 253.8 M221.4 253.5 C152.4 254.3, 96.7 253.4, 48.5 254.0 M48.0 254.0 C46.6 238.4, 49.2 223.2, 47.8 208.0 M48.6 253.6 C47.7 235.6, 48.5 220.9, 48.0 208.5" stroke="#0a5f56" fill="none" stroke-width="1.2" fill-rule="evenodd"/></g>
<text x="62" y="228" font-family="'Inter',sans-serif" font-size="10" font-weight="600" fill="#0a5f56" text-anchor="start"><tspan x="62" dy="0">voc&#234;</tspan></text>
<text x="135" y="244" font-family="'Kalam','Inter',cursive,sans-serif" font-size="13" font-weight="400" fill="#262a33" text-anchor="middle"><tspan x="135" dy="0">sou backend em Go</tspan></text>
<path d="M250 168 C284.0 166.0, 284.0 170.0, 318 168" stroke="#262a33" fill="none" stroke-width="2.2" fill-rule="evenodd"/><path d="M318 168 C308.0 160.0, 302.0 161.0, 296.0 156.0" stroke="#262a33" fill="none" stroke-width="2.2" fill-rule="evenodd"/><path d="M318 168 C308.0 176.0, 302.0 175.0, 296.0 180.0" stroke="#262a33" fill="none" stroke-width="2.2" fill-rule="evenodd"/>
<text x="286" y="152" font-family="'Kalam','Inter',cursive,sans-serif" font-size="13" font-weight="400" fill="#8a5c10" text-anchor="middle"><tspan x="286" dy="0">captura</tspan></text>
<text x="286" y="196" font-family="'Inter',sans-serif" font-size="11" font-weight="600" fill="#8a5c10" text-anchor="middle"><tspan x="286" dy="0">LLM / regras</tspan></text>
<text x="415" y="78" font-family="'Inter',sans-serif" font-size="11" font-weight="700" fill="#8a5c10" text-anchor="middle"><tspan x="415" dy="0">fato &#250;til</tspan></text>
<g transform="rotate(2 415 106)"><path d="M346.4 88.9 L484.4 89.6 L485.8 122.8 L343.9 124.5 Z" stroke="none" fill="#faf0dd" fill-rule="evenodd"/><path d="M345.0 88.0 C391.2 86.6, 437.4 89.2, 485.0 88.3 M345.8 88.7 C401.0 88.2, 445.8 89.0, 484.6 88.6 M485.0 88.0 C486.3 99.9, 483.9 111.8, 485.2 124.0 M484.5 88.6 C485.4 102.4, 484.7 113.9, 485.0 123.6 M485.0 124.0 C437.4 125.3, 391.2 123.0, 345.0 123.8 M484.4 123.5 C429.0 124.3, 384.2 123.4, 345.5 124.0 M345.0 124.0 C343.6 111.8, 346.2 99.9, 344.8 88.0 M345.6 123.6 C344.7 109.6, 345.5 98.1, 345.0 88.5" stroke="#c98a1f" fill="none" stroke-width="1.5" fill-rule="evenodd"/></g>
<text x="415" y="111" font-family="'Kalam','Inter',cursive,sans-serif" font-size="13" font-weight="700" fill="#8a5c10" text-anchor="middle"><tspan x="415" dy="0">prefere Go</tspan></text>
<g transform="rotate(-2 415 156)"><path d="M346.4 138.9 L484.4 139.6 L485.8 172.8 L343.9 174.5 Z" stroke="none" fill="#faf0dd" fill-rule="evenodd"/><path d="M345.0 138.0 C391.2 136.6, 437.4 139.2, 485.0 138.3 M345.8 138.7 C401.0 138.2, 445.8 139.0, 484.6 138.6 M485.0 138.0 C486.3 149.9, 483.9 161.8, 485.2 174.0 M484.5 138.6 C485.4 152.4, 484.7 163.9, 485.0 173.6 M485.0 174.0 C437.4 175.3, 391.2 173.0, 345.0 173.8 M484.4 173.5 C429.0 174.3, 384.2 173.4, 345.5 174.0 M345.0 174.0 C343.6 161.8, 346.2 149.9, 344.8 138.0 M345.6 173.6 C344.7 159.6, 345.5 148.1, 345.0 138.5" stroke="#c98a1f" fill="none" stroke-width="1.5" fill-rule="evenodd"/></g>
<text x="415" y="161" font-family="'Kalam','Inter',cursive,sans-serif" font-size="13" font-weight="700" fill="#8a5c10" text-anchor="middle"><tspan x="415" dy="0">dev backend</tspan></text>
<g transform="rotate(1.2 415 210)"><path d="M346.0 192.7 L484.5 193.2 L485.4 227.2 L344.3 228.3 Z" stroke="none" fill="#fffdf9" fill-rule="evenodd"/><path d="M345.0 192.0 L485.0 192.6 L485.3 228.0 L344.6 227.7 Z" stroke="#c9c4b6" fill="none" stroke-width="1.3" stroke-dasharray="5 4" fill-rule="evenodd"/></g>
<text x="415" y="215" font-family="'Kalam','Inter',cursive,sans-serif" font-size="12" font-weight="400" fill="#8b8578" text-anchor="middle"><tspan x="415" dy="0">ok, uso Go</tspan></text>
<text x="415" y="248" font-family="'Inter',sans-serif" font-size="10" font-weight="600" fill="#8b8578" text-anchor="middle"><tspan x="415" dy="0">descartado</tspan></text>
<path d="M495 155 C531.5 153.0, 531.5 157.0, 568 155" stroke="#262a33" fill="none" stroke-width="2.2" fill-rule="evenodd"/><path d="M568 155 C558.0 147.0, 552.0 148.0, 546.0 143.0" stroke="#262a33" fill="none" stroke-width="2.2" fill-rule="evenodd"/><path d="M568 155 C558.0 163.0, 552.0 162.0, 546.0 167.0" stroke="#262a33" fill="none" stroke-width="2.2" fill-rule="evenodd"/>
<g transform="rotate(-1 640 168)"><path d="M579.4 52.9 L701.4 53.6 L702.8 268.8 L576.9 270.5 Z" stroke="none" fill="#faf0dd" fill-rule="evenodd"/><path d="M578.0 52.0 C618.9 50.6, 659.8 53.2, 702.0 52.3 M578.8 52.7 C627.6 52.2, 667.3 53.0, 701.6 52.6 M702.0 52.0 C703.3 123.9, 700.9 195.9, 702.2 270.0 M701.5 52.6 C702.4 139.2, 701.7 209.0, 702.0 269.6 M702.0 270.0 C659.8 271.3, 618.9 269.0, 578.0 269.8 M701.4 269.5 C652.4 270.3, 612.7 269.4, 578.5 270.0 M578.0 270.0 C576.6 195.9, 579.2 123.9, 577.8 52.0 M578.6 269.6 C577.7 182.8, 578.5 113.0, 578.0 52.5" stroke="#c98a1f" fill="none" stroke-width="1.7" fill-rule="evenodd"/></g>
<text x="640" y="82" font-family="'Inter',sans-serif" font-size="12" font-weight="700" fill="#8a5c10" text-anchor="middle"><tspan x="640" dy="0">mem&#243;ria</tspan></text>
<text x="640" y="100" font-family="'Inter',sans-serif" font-size="12" font-weight="700" fill="#8a5c10" text-anchor="middle"><tspan x="640" dy="0">longo prazo</tspan></text>
<path d="M610 118 L670 118 L668 158 L612 156 Z" stroke="none" fill="#fffdf9"/>
<path d="M610 118 C630 116, 650 120, 670 118 M670 118 C669 132, 671 146, 668 158 M668 158 C648 157, 628 159, 612 156 M612 156 C611 142, 609 128, 610 118 M610 138 C630 136, 650 140, 670 138" stroke="#8a5c10" fill="none" stroke-width="1.4"/>
<text x="640" y="182" font-family="'Kalam','Inter',cursive,sans-serif" font-size="12" font-weight="400" fill="#8a5c10" text-anchor="middle"><tspan x="640" dy="0">prefere Go</tspan></text>
<text x="640" y="204" font-family="'Kalam','Inter',cursive,sans-serif" font-size="12" font-weight="400" fill="#8a5c10" text-anchor="middle"><tspan x="640" dy="0">backend</tspan></text>
<path d="M605 222 C628 220, 652 224, 675 222" stroke="#c98a1f" fill="none" stroke-width="1" opacity="0.5"/>
<path d="M605 238 C625 236, 645 240, 665 238" stroke="#c98a1f" fill="none" stroke-width="1" opacity="0.4"/>
<text x="360" y="340" font-family="'Kalam','Inter',cursive,sans-serif" font-size="13.5" font-weight="400" fill="#8b8578" text-anchor="middle"><tspan x="360" dy="0">o sistema identifica o que pode ser &#250;til no futuro e grava</tspan></text>
</svg>
